<svg width="285" height="81" viewBox="0 0 285 81" fill="none" xmlns="http://www.w3.org/2000/svg">
<g clip-path="url(#clip0_47_34)">
<path d="M49.3561 9.351L45.9127 8.16563L40.518 42.4095L46.8309 43.4632L50.963 18.1754C64.8515 23.9705 72.0826 33.3217 71.0496 39.512C70.3609 43.3315 66.688 46.6242 60.7194 48.4681C56.3577 49.7852 51.1926 50.312 45.7979 49.9169L42.2397 49.5217L39.1406 49.1266C38.1076 48.9949 37.0746 48.7315 36.1563 48.4681C17.1028 44.1217 5.39516 32.1364 6.65775 24.2339C8.14989 15.2778 24.2192 11.9851 38.3372 14.4876L39.3702 6.71685C18.8245 2.89734 2.41087 9.61442 0.230039 22.6534C-0.917766 29.7656 2.29609 37.1412 9.41248 43.5949C15.8402 49.39 24.9078 53.9998 34.779 56.3705C35.812 56.6339 36.845 56.7656 37.7633 57.0291L34.6642 75.9949H41.4362L44.4205 57.951C50.963 58.4778 57.0464 57.951 62.3263 56.3705C70.9348 53.7364 76.3295 48.3364 77.4773 41.2242C79.5434 28.8437 67.9505 15.8047 49.3561 9.351Z" fill="#EEEEEE"/>
<path d="M87.0034 23.1803C87.0034 21.4681 87.233 19.7559 87.6921 18.3071C88.1512 16.8583 88.7251 15.4096 89.6434 14.3559C90.5616 13.3022 91.4799 12.3803 92.7424 11.7218C94.005 11.0632 95.2676 10.7998 96.7598 10.7998C98.5962 10.7998 100.318 11.1949 102.04 11.9852L101.007 16.4632C100.433 16.1998 99.8588 15.9364 99.1701 15.8047C98.4815 15.673 97.7928 15.5413 97.1041 15.5413C95.2676 15.5413 94.005 16.1998 93.0868 17.5169C92.1685 18.834 91.7094 20.6779 91.7094 23.1803C91.7094 25.6827 92.1685 27.3949 92.972 28.712C93.8902 30.0291 95.3824 30.8193 97.4484 30.8193C98.2519 30.8193 98.9406 30.6876 99.7441 30.5559C100.548 30.4242 101.121 30.1608 101.695 29.8974L102.384 34.3754C101.925 34.6388 101.121 34.9022 100.088 35.1657C99.0554 35.4291 98.0223 35.5608 96.9893 35.5608C95.2676 35.5608 93.8902 35.2974 92.6277 34.6388C91.3651 33.9803 90.332 33.19 89.5286 32.0047C88.7251 30.8193 88.1512 29.634 87.6921 28.0535C87.233 26.473 87.0034 25.0242 87.0034 23.1803Z" fill="#EEEEEE"/>
<path d="M123.159 23.1807C123.159 25.0246 122.93 26.7367 122.471 28.3172C122.011 29.8977 121.438 31.2148 120.519 32.2685C119.601 33.3221 118.683 34.2441 117.535 34.7709C116.387 35.4294 115.125 35.6928 113.747 35.6928C112.37 35.6928 111.107 35.4294 109.959 34.7709C108.812 34.1124 107.779 33.3221 106.975 32.2685C106.172 31.2148 105.483 29.8977 105.024 28.3172C104.565 26.7367 104.335 25.0246 104.335 23.1807C104.335 21.3368 104.565 19.6246 105.024 18.0441C105.483 16.4636 106.172 15.2782 106.975 14.0928C107.779 13.0392 108.812 12.1172 109.959 11.5904C111.107 11.0636 112.37 10.6685 113.747 10.6685C115.125 10.6685 116.387 10.9319 117.535 11.5904C118.683 12.2489 119.716 13.0392 120.519 14.0928C121.323 15.1465 122.011 16.4636 122.471 18.0441C122.93 19.6246 123.159 21.3368 123.159 23.1807ZM118.453 23.1807C118.453 20.8099 117.994 18.966 117.191 17.6489C116.387 16.3319 115.125 15.5416 113.632 15.5416C112.14 15.5416 110.992 16.2002 110.074 17.6489C109.271 18.966 108.812 20.8099 108.812 23.1807C108.812 25.5514 109.271 27.3953 110.074 28.8441C110.878 30.1611 112.14 30.9514 113.632 30.9514C115.125 30.9514 116.272 30.2928 117.191 28.8441C118.109 27.3953 118.453 25.5514 118.453 23.1807Z" fill="#EEEEEE"/>
<path d="M138.999 22.6536C138.999 20.1512 138.769 18.439 138.196 17.2536C137.736 16.1999 136.703 15.6731 135.326 15.6731C134.867 15.6731 134.293 15.6731 133.719 15.8048C133.145 15.9365 132.686 15.9365 132.342 16.0682V35.0341H127.75V12.117C128.669 11.8536 129.817 11.5902 131.194 11.3268C132.571 11.0633 134.063 10.9316 135.67 10.9316C137.048 10.9316 138.081 11.1951 138.999 11.5902C139.917 11.9853 140.606 12.5121 141.18 13.3024C141.409 13.039 141.754 12.7755 142.213 12.5121C142.672 12.2487 143.131 11.9853 143.59 11.7219C144.164 11.4585 144.623 11.3268 145.312 11.1951C146.001 11.0633 146.46 10.9316 147.034 10.9316C148.526 10.9316 149.788 11.1951 150.821 11.7219C151.854 12.2487 152.543 13.039 153.117 13.9609C153.691 14.8829 154.035 16.0682 154.265 17.3853C154.494 18.7024 154.609 20.1512 154.609 21.7316V35.0341H150.018V22.6536C150.018 20.1512 149.788 18.439 149.329 17.2536C148.87 16.1999 147.837 15.6731 146.46 15.6731C145.771 15.6731 145.082 15.8048 144.394 16.0682C143.705 16.3316 143.246 16.5951 142.902 16.8585C143.131 17.6487 143.246 18.439 143.361 19.2292C143.475 20.0194 143.475 20.9414 143.475 21.9951V35.0341H138.884L138.999 22.6536Z" fill="#EEEEEE"/>
<path d="M171.482 22.6536C171.482 20.1512 171.252 18.439 170.678 17.2536C170.219 16.1999 169.186 15.6731 167.809 15.6731C167.35 15.6731 166.776 15.6731 166.202 15.8048C165.628 15.9365 165.169 15.9365 164.825 16.0682V35.0341H160.233V12.117C161.152 11.8536 162.299 11.5902 163.677 11.3268C165.054 11.0633 166.546 10.9316 168.153 10.9316C169.531 10.9316 170.564 11.1951 171.482 11.5902C172.4 11.9853 173.089 12.5121 173.663 13.3024C173.892 13.039 174.237 12.7755 174.696 12.5121C175.155 12.2487 175.614 11.9853 176.073 11.7219C176.532 11.4585 177.106 11.3268 177.795 11.1951C178.369 11.0633 178.943 10.9316 179.631 10.9316C181.123 10.9316 182.386 11.1951 183.419 11.7219C184.452 12.2487 185.141 13.039 185.715 13.9609C186.289 14.8829 186.633 16.0682 186.862 17.3853C187.092 18.7024 187.207 20.1512 187.207 21.7316V35.0341H182.616V22.6536C182.616 20.1512 182.386 18.439 181.927 17.2536C181.468 16.1999 180.435 15.6731 179.057 15.6731C178.369 15.6731 177.68 15.8048 176.991 16.0682C176.303 16.3316 175.844 16.5951 175.499 16.8585C175.729 17.6487 175.844 18.439 175.958 19.2292C176.073 20.0194 176.073 20.9414 176.073 21.9951V35.0341H171.482V22.6536Z" fill="#EEEEEE"/>
<path d="M191.683 23.312C191.683 21.2047 191.913 19.3608 192.487 17.912C193.06 16.4632 193.634 15.0144 194.553 13.9608C195.356 12.9071 196.389 12.1169 197.537 11.59C198.685 11.0632 199.718 10.7998 200.866 10.7998C203.62 10.7998 205.686 11.8535 207.178 13.8291C208.671 15.8047 209.474 18.834 209.474 22.7852C209.474 23.0486 209.474 23.4437 209.474 23.8388C209.474 24.234 209.474 24.4974 209.359 24.8925H196.389C196.504 26.7364 197.078 28.1852 198.111 29.2388C199.144 30.2925 200.521 30.8193 202.472 30.8193C203.62 30.8193 204.539 30.6876 205.457 30.4242C206.375 30.1608 207.064 29.8974 207.638 29.634L208.211 34.112C207.982 34.2437 207.638 34.3754 207.178 34.6388C206.719 34.7705 206.26 34.9022 205.686 35.034C205.112 35.1657 204.539 35.2974 203.85 35.4291C203.161 35.5608 202.587 35.5608 201.899 35.5608C200.177 35.5608 198.685 35.2974 197.422 34.6388C196.16 33.9803 195.127 33.19 194.208 32.0047C193.29 30.8193 192.831 29.634 192.372 28.0535C191.913 26.7364 191.683 25.1559 191.683 23.312ZM204.883 20.9413C204.883 20.151 204.768 19.4925 204.653 18.834C204.539 18.1754 204.194 17.5169 203.85 17.1218C203.506 16.7266 203.161 16.1998 202.587 15.9364C202.128 15.673 201.554 15.5413 200.866 15.5413C200.177 15.5413 199.603 15.673 199.029 16.0681C198.455 16.4632 197.996 16.8583 197.652 17.2535C197.307 17.7803 196.963 18.3071 196.848 18.9657C196.619 19.6242 196.504 20.2827 196.389 20.9413H204.883Z" fill="#EEEEEE"/>
<path d="M225.429 16.3316C225.084 16.1999 224.51 16.0682 223.822 15.8048C223.133 15.6731 222.444 15.5414 221.526 15.5414C221.067 15.5414 220.493 15.6731 219.919 15.6731C219.345 15.6731 219.001 15.9365 218.771 15.9365V34.9024H214.18V12.5121C215.098 12.117 216.131 11.7219 217.509 11.4585C218.771 11.0633 220.264 10.9316 221.87 10.9316C222.215 10.9316 222.559 10.9316 222.903 11.0633C223.248 11.1951 223.707 11.1951 224.166 11.1951C224.625 11.1951 224.97 11.3268 225.314 11.4585C225.658 11.5902 226.003 11.5902 226.232 11.7219L225.429 16.3316Z" fill="#EEEEEE"/>
<path d="M228.298 23.1803C228.298 21.4681 228.528 19.7559 228.987 18.3071C229.446 16.8583 230.02 15.4096 230.938 14.3559C231.857 13.3022 232.775 12.3803 234.037 11.7218C235.3 11.0632 236.563 10.7998 238.055 10.7998C239.891 10.7998 241.613 11.1949 243.335 11.9852L242.302 16.4632C241.728 16.1998 241.154 15.9364 240.465 15.8047C239.776 15.673 239.088 15.5413 238.284 15.5413C236.448 15.5413 235.185 16.1998 234.267 17.5169C233.349 18.834 232.89 20.6779 232.89 23.1803C232.89 25.6827 233.349 27.3949 234.152 28.712C235.07 30.0291 236.563 30.8193 238.629 30.8193C239.432 30.8193 240.121 30.6876 240.924 30.5559C241.613 30.4242 242.302 30.1608 242.875 29.8974L243.564 34.3754C243.105 34.6388 242.302 34.9022 241.269 35.1657C240.236 35.4291 239.202 35.5608 238.169 35.5608C236.448 35.5608 235.07 35.2974 233.808 34.6388C232.545 33.9803 231.512 33.19 230.709 32.0047C229.905 30.8193 229.331 29.634 228.872 28.0535C228.528 26.6047 228.298 25.0242 228.298 23.1803Z" fill="#EEEEEE"/>
<path d="M252.173 4.47823C252.173 5.53189 251.943 6.32213 251.369 6.98067C250.795 7.63921 250.107 7.90262 249.418 7.90262C248.729 7.90262 248.04 7.63921 247.467 6.98067C246.893 6.32213 246.663 5.53189 246.663 4.60994C246.663 3.68799 246.893 2.76603 247.467 2.1075C248.04 1.44896 248.729 1.18555 249.418 1.18555C250.107 1.18555 250.795 1.44896 251.369 2.1075C251.943 2.63433 252.173 3.42457 252.173 4.47823ZM251.713 35.0343H247.122V11.4587H248.27C250.107 11.4587 251.713 13.1709 251.713 15.4099V35.0343Z" fill="#EEEEEE"/>
<path d="M263.995 10.7998C265.487 10.7998 266.75 11.0632 267.783 11.4583C268.816 11.8535 269.619 12.512 270.193 13.3022C270.767 14.0925 271.226 15.1461 271.456 16.1998C271.685 17.3852 271.8 18.5705 271.8 20.0193V34.3754C271.111 34.5071 270.078 34.7705 268.586 35.034C267.209 35.2974 265.602 35.4291 263.765 35.4291C262.618 35.4291 261.47 35.2974 260.551 35.034C259.518 34.7705 258.715 34.3754 258.026 33.7169C257.338 33.0583 256.764 32.3998 256.419 31.3461C256.075 30.4242 255.845 29.2388 255.845 27.7901C255.845 26.3413 256.075 25.2876 256.534 24.3657C256.993 23.4437 257.567 22.6535 258.371 22.1266C259.174 21.5998 259.978 21.073 261.011 20.8096C262.044 20.5461 263.077 20.4144 264.11 20.4144C264.569 20.4144 265.143 20.4144 265.717 20.5461C266.29 20.6779 266.864 20.6779 267.438 20.9413V20.0193C267.438 19.3608 267.324 18.834 267.209 18.1754C267.094 17.5169 266.864 17.1218 266.52 16.7266C266.176 16.3315 265.831 15.9364 265.257 15.673C264.798 15.4096 264.11 15.2779 263.306 15.2779C262.273 15.2779 261.24 15.4096 260.437 15.5413C259.518 15.673 258.83 15.9364 258.256 16.1998L257.912 11.8535C258.485 11.59 259.289 11.3266 260.437 11.0632C261.584 10.7998 262.732 10.7998 263.995 10.7998ZM264.339 31.2144C265.717 31.2144 266.75 31.0827 267.553 30.951V24.8925C267.324 24.7608 266.979 24.7608 266.52 24.6291C266.061 24.4974 265.487 24.4974 264.913 24.4974C264.454 24.4974 263.88 24.4974 263.421 24.6291C262.962 24.7608 262.388 24.8925 262.044 25.1559C261.699 25.4193 261.355 25.6827 261.011 26.2096C260.666 26.7364 260.666 27.2632 260.666 27.7901C260.666 29.1071 261.011 30.0291 261.699 30.4242C262.388 30.8193 263.191 31.2144 264.339 31.2144Z" fill="#EEEEEE"/>
<path d="M284.311 35.4293C282.934 35.4293 281.901 35.1658 280.983 34.9024C280.064 34.639 279.376 34.1122 278.802 33.4537C278.228 32.7951 277.883 32.1366 277.654 31.0829C277.424 30.161 277.31 29.1073 277.31 27.9219V0.921951L281.901 0V27C281.901 27.6585 281.901 28.1854 282.016 28.7122C282.13 29.1073 282.245 29.5024 282.475 29.8976C282.704 30.161 283.049 30.4244 283.393 30.5561C283.737 30.6878 284.311 30.8195 284.885 30.9512L284.311 35.4293Z" fill="#EEEEEE"/>
<path d="M105.827 60.8488C105.827 62.6927 105.598 64.2731 105.253 65.8536C104.909 67.4341 104.335 68.6195 103.532 69.8048C102.843 70.8585 101.925 71.7805 100.777 72.3073C99.744 72.9658 98.4814 73.2292 97.104 73.2292C96.1858 73.2292 95.2676 73.0975 94.5789 72.8341C93.7754 72.5707 93.2015 72.3073 92.6276 71.9122V81.1317H88.0364V49.7853C88.9546 49.5219 90.1024 49.1268 91.4798 48.8634C92.8572 48.6 94.2345 48.4683 95.7267 48.4683C97.2188 48.4683 98.711 48.7317 99.8588 49.3902C101.007 50.0488 102.154 50.839 102.958 51.8927C103.876 52.9463 104.45 54.2634 104.909 55.8439C105.483 57.2927 105.827 59.0048 105.827 60.8488ZM101.121 60.8488C101.121 58.478 100.662 56.5024 99.744 55.1853C98.8257 53.8683 97.3336 53.2097 95.3823 53.2097C94.9232 53.2097 94.4641 53.2097 94.005 53.2097C93.5458 53.2097 93.0867 53.3414 92.6276 53.4731V66.9073C92.9719 67.1707 93.5458 67.5658 94.2345 67.8292C94.9232 68.0927 95.6119 68.2244 96.3006 68.2244C97.9075 68.2244 99.1701 67.5658 99.9736 66.2488C100.777 65.0634 101.121 63.2195 101.121 60.8488Z" fill="#EEEEEE"/>
<path d="M121.667 53.8684C121.323 53.7367 120.749 53.605 120.06 53.3416C119.372 53.2099 118.683 53.0781 117.765 53.0781C117.306 53.0781 116.732 53.0781 116.158 53.2099C115.584 53.3416 115.239 53.4733 115.01 53.4733V72.4391H110.419V50.1806C111.337 49.7855 112.37 49.3903 113.747 49.1269C115.125 48.8635 116.502 48.6001 118.109 48.6001C118.453 48.6001 118.798 48.6001 119.142 48.6001C119.486 48.6001 119.945 48.7318 120.405 48.7318C120.749 48.8635 121.208 48.8635 121.552 48.9952C121.897 49.1269 122.241 49.2586 122.471 49.2586C122.471 49.3903 121.667 53.8684 121.667 53.8684Z" fill="#EEEEEE"/>
<path d="M130.62 42.1466C130.62 43.2002 130.39 43.9905 129.817 44.649C129.243 45.3075 128.554 45.5709 127.865 45.5709C127.177 45.5709 126.488 45.3075 125.914 44.649C125.34 43.9905 125.111 43.2002 125.111 42.1466C125.111 41.0929 125.34 40.3027 125.914 39.6441C126.488 38.9856 127.177 38.7222 127.865 38.7222C128.554 38.7222 129.243 38.9856 129.817 39.6441C130.39 40.1709 130.62 41.0929 130.62 42.1466ZM130.161 72.5709H125.57V48.9953H127.98C129.243 48.9953 130.161 50.049 130.161 51.4978V72.5709Z" fill="#EEEEEE"/>
<path d="M147.148 60.1902C147.148 57.6878 146.919 55.9756 146.345 54.7902C145.886 53.7366 144.853 53.2097 143.475 53.2097C143.016 53.2097 142.442 53.2097 141.868 53.3414C141.295 53.4731 140.835 53.4731 140.491 53.6048V72.7024H135.9V49.7853C136.818 49.5219 137.966 49.1268 139.343 48.8634C140.721 48.6 142.213 48.4683 143.82 48.4683C145.197 48.4683 146.23 48.7317 147.148 49.1268C148.067 49.5219 148.755 50.0487 149.329 50.839C149.559 50.5756 149.903 50.3122 150.362 50.0488C150.821 49.7853 151.28 49.5219 151.74 49.2585C152.199 48.9951 152.773 48.8634 153.461 48.7317C154.035 48.6 154.609 48.4683 155.298 48.4683C156.79 48.4683 158.053 48.7317 159.086 49.2585C160.119 49.7853 160.807 50.5756 161.381 51.4975C161.955 52.4195 162.299 53.6048 162.529 54.9219C162.759 56.239 162.873 57.6878 162.873 59.2683V72.5707H158.282V60.1902C158.282 57.6878 158.053 55.9756 157.593 54.7902C157.134 53.7366 156.101 53.2097 154.724 53.2097C154.035 53.2097 153.347 53.3414 152.658 53.6048C151.969 53.8683 151.51 54.1317 151.166 54.3951C151.395 55.1853 151.51 55.9756 151.625 56.7658C151.74 57.5561 151.74 58.478 151.74 59.4V72.439H147.148V60.1902Z" fill="#EEEEEE"/>
<path d="M167.35 60.8486C167.35 58.7413 167.579 56.8974 168.153 55.4486C168.612 53.8681 169.301 52.5511 170.219 51.4974C171.023 50.4437 172.056 49.6535 173.204 49.1267C174.351 48.5998 175.384 48.3364 176.532 48.3364C179.287 48.3364 181.353 49.3901 182.845 51.3657C184.337 53.3413 185.141 56.3706 185.141 60.3218C185.141 60.5852 185.141 60.9803 185.141 61.3754C185.141 61.7706 185.141 62.034 185.026 62.4291H172.056C172.171 64.273 172.745 65.7218 173.778 66.7755C174.811 67.8291 176.188 68.3559 178.139 68.3559C179.287 68.3559 180.205 68.2242 181.124 67.9608C182.042 67.6974 182.73 67.434 183.304 67.1706L183.878 71.6486C183.649 71.7803 183.304 71.912 182.845 72.1754C182.386 72.3072 181.927 72.4389 181.353 72.5706C180.779 72.7023 180.205 72.834 179.517 72.9657C178.828 73.0974 178.254 73.0974 177.565 73.0974C175.844 73.0974 174.351 72.834 173.089 72.1754C171.826 71.5169 170.793 70.7267 169.875 69.5413C168.957 68.3559 168.498 67.1706 168.039 65.5901C167.579 64.0096 167.35 62.6925 167.35 60.8486ZM180.55 58.4779C180.55 57.6876 180.435 57.0291 180.32 56.3706C180.205 55.712 179.861 55.0535 179.517 54.6584C179.172 54.2633 178.828 53.7364 178.254 53.473C177.795 53.2096 177.221 53.0779 176.532 53.0779C175.844 53.0779 175.27 53.2096 174.696 53.6047C174.122 53.9998 173.663 54.2633 173.318 54.7901C172.974 55.3169 172.63 55.8437 172.515 56.5023C172.285 57.1608 172.171 57.8194 172.056 58.4779H180.55Z" fill="#EEEEEE"/>
</g>
<defs>
<clipPath id="clip0_47_34">
<rect width="285" height="81" fill="white"/>
</clipPath>
</defs>
</svg>
